<svg width="428.99999999999994" height="52.96121520777385" viewBox="0 0 370.0169491525424 45.67959737667066" class="css-1j8o68f"><defs id="SvgjsDefs6952"></defs><g id="SvgjsG6953" featurekey="symbolFeature-0" transform="matrix(0.8898305084745763,0,0,0.8898305084745763,0,-18.405702170679128)" fill="#333333"><g xmlns="http://www.w3.org/2000/svg"><path d="M100,46.001v-6H84.678c0.952,1.897,1.62,3.939,1.974,6H100z"></path><path d="M100,59.438v-6H86.614c-0.377,2.068-1.078,4.104-2.052,6H100z"></path><path d="M20.923,47.001c0,0-0.003,0.02-0.009,0.047C20.918,47.031,20.92,47.019,20.923,47.001h-6.621   c-0.244,1.859-0.227,3.641,0.028,5.436h6.64C20.611,50.607,20.605,48.791,20.923,47.001z"></path><path d="M70.714,40.001c-4.172,0-7.877-2.387-12.169-5.15l-0.212-0.137l-0.045-0.028l-0.141-0.091   c-3.788-2.438-7.692-4.802-12.147-6.089c-3.899-1.126-8.083-1.388-12.106-0.703c-7.12,1.213-13.338,5.39-16.803,11.198h7.951   c3.372-3.547,8.222-5.576,13.342-5.576c1.006,0,1.995,0.084,3.016,0.239l0.01-0.007l0.225,0.036   c2.793,0.457,5.463,1.473,8.654,3.292l0.744,0.424l-0.011,0.007c6.1,3.61,11.981,8.585,19.691,8.585h7.019   c-0.603-2.2-1.723-4.244-3.289-6H70.714z"></path><path d="M41.516,64.523c2.639-0.42,5.133-1.424,7.43-2.66c-6.113-3.551-11.986-8.426-19.659-8.426h-6.973h-8.931H0v6h15.422h10.345   h3.52c4.186,0,7.896,2.348,12.192,5.064L41.516,64.523z M40.476,63.867c0.19,0.119,0.417,0.264,0.681,0.43   C40.968,64.178,40.722,64.023,40.476,63.867z M39.746,63.406c0.112,0.07,0.274,0.174,0.526,0.332   C40.063,63.605,39.876,63.488,39.746,63.406z"></path><path d="M45.234,39.756c1.151-0.742,2.432-1.567,3.727-2.334c-2.294-1.234-4.684-2.214-7.3-2.703l-0.203,0.131   c-4.295,2.765-8,5.151-12.171,5.151h-3.74h-10.24H0v6h13.346h8.902h7.039c6.05,0,10.863-2.976,15.491-5.952   C43.723,40.729,41.961,41.864,45.234,39.756z"></path><path d="M46.754,70.5c4.201-1.318,7.914-3.563,11.542-5.855l0.165-0.105c4.355-2.756,8.065-5.102,12.252-5.102h3.512   c1.62-1.721,2.82-3.801,3.438-6h-6.95c-7.676,0-13.563,4.879-19.679,8.432l0.012,0.006l-0.762,0.428   c-3.236,1.809-5.95,2.811-8.801,3.246l-0.22,0.033l-0.011-0.008c-5.915,0.84-11.955-1.064-15.979-5.137H17.23   c3.598,5.865,10.027,10.008,17.295,11.072C38.619,72.107,42.839,71.727,46.754,70.5z"></path><path d="M74.729,60.438h-0.019c-4.023,4.064-10.061,5.982-15.974,5.143c-2.401,1.52-4.843,3.016-7.448,4.23   c7.937,3.088,17.161,2.531,24.274-2.053c7.349-4.738,11.298-13.035,10.074-21.186V46.57c-1.02-6.773-5.554-12.897-12.054-16.271   c-6.842-3.551-15.144-3.699-22.313-0.858c2.563,1.209,4.961,2.705,7.318,4.217c1.024-0.156,2.017-0.232,3.024-0.232   c5.117,0,9.953,2.035,13.328,5.576h0.018l0.165,0.178c1.925,2.082,3.25,4.58,3.833,7.224l0.099,0.599   c0.319,1.791,0.308,3.613-0.048,5.436l-0.109,0.607c-0.631,2.654-2.016,5.152-4.007,7.223L74.729,60.438z"></path></g></g><g id="SvgjsG6954" featurekey="nameFeature-0" transform="matrix(0.8380431860865201,0,0,0.8380431860865201,108.09491332306165,-12.838821355095003)" fill="#8739f9"><path d="M1.08 39.4 l0 -5.64 c0.48 0.12 1.08 0.24 1.76 0.32 c0.68 0.12 1.4 0.2 2.16 0.24 s1.52 0.08 2.32 0.12 s1.56 0.08 2.24 0.08 c1.88 0 3.2 -0.12 4 -0.32 c0.76 -0.2 1.16 -0.56 1.16 -1.12 c0 -0.48 -0.36 -0.84 -0.72 -1.12 c-1.32 -0.88 -2.88 -1.24 -4.44 -1.6 c-4.4 -0.88 -8.44 -2.64 -8.44 -7.68 c0 -5.96 5.64 -7.36 10.48 -7.36 c2.68 0 5.4 0.28 8 0.92 l0 5.64 c-0.4 -0.12 -0.92 -0.2 -1.56 -0.32 c-0.68 -0.08 -1.36 -0.16 -2.12 -0.24 c-1.56 -0.16 -3.04 -0.24 -4.6 -0.24 c-0.88 0 -2.72 0 -3.56 0.32 c-0.56 0.2 -0.92 0.44 -0.92 1.08 c0 0.32 0.08 0.6 0.24 0.84 c0.16 0.28 0.44 0.48 0.8 0.68 c1.08 0.6 2.48 0.96 3.68 1.24 c1 0.24 2 0.52 3.04 0.8 c3.52 0.96 5.84 2.92 5.84 6.68 c0 6.2 -6.16 7.52 -11.12 7.52 c-2.72 0 -5.56 -0.2 -8.24 -0.84 z M50.97 33.16 l0 6.16 c-2.48 0.68 -4.96 0.96 -7.52 0.96 c-7.52 0 -12.56 -5.16 -12.56 -12.48 c0 -7.52 5.24 -12.48 12.52 -12.48 c2.52 0 5.16 0.2 7.56 0.96 l0 6.16 c-1.96 -0.96 -5.04 -1.32 -7.2 -1.32 c-4.88 0 -6.88 2 -6.88 6.64 c0 4.92 2.36 6.72 6.92 6.72 c2.04 0 5.36 -0.32 7.16 -1.32 z M77.22 15.52 l6 0 l0 24.48 l-6 0 l0 -9.44 l-8.8 0 l0 9.44 l-6 0 l0 -24.48 l6 0 l0 9.48 l8.8 0 l0 -9.48 z M95.75 15.52 l18.2 0 l0 5.56 l-12.2 0 l0 3.92 l9.8 0 l0 5.56 l-9.8 0 l0 3.88 l12.2 0 l0 5.56 l-18.2 0 l0 -24.48 z M133.92 40 l-8.6 0 l0 -24.48 l8.6 0 c7.48 0 12.6 4.88 12.6 12.24 c0 7.56 -5.4 12.24 -12.6 12.24 z M131.32 21.08 l0 13.36 l2.6 0 c4.24 0 6.6 -2.68 6.6 -6.68 c0 -0.92 -0.12 -1.76 -0.36 -2.6 c-1.04 -2.92 -3.32 -4.08 -6.24 -4.08 l-2.6 0 z M173.09 15.52 l6 0 l0 14.48 c0 6.36 -4.56 10.2 -10.6 10.2 c-6.2 0 -10.6 -4.08 -10.6 -10.2 l0 -14.48 l6 0 l0 14.48 c0 2.88 1.72 4.64 4.6 4.64 c2.96 0 4.6 -1.72 4.6 -4.64 l0 -14.48 z M209.46 34.44 l0 5.56 l-18.2 0 l0 -24.48 l6 0 l0 18.92 l12.2 0 z M220.47000000000003 15.52 l18.2 0 l0 5.56 l-12.2 0 l0 3.92 l9.8 0 l0 5.56 l-9.8 0 l0 3.88 l12.2 0 l0 5.56 l-18.2 0 l0 -24.48 z M257.08000000000004 36.76 c0 2.04 -1.4 3.44 -3.44 3.44 s-3.48 -1.36 -3.48 -3.44 c0 -2.04 1.44 -3.48 3.48 -3.48 c2.12 0 3.44 1.36 3.44 3.48 z M269.69000000000005 15.52 l6 0 l0 24.48 l-6 0 l0 -24.48 z M299.94000000000005 34.64 c4.36 0 6.6 -2.8 6.6 -6.88 c0 -4.32 -2.4 -6.88 -6.6 -6.88 c-4.4 0 -6.6 2.8 -6.6 6.88 c0 4.24 2.44 6.88 6.6 6.88 z M299.94000000000005 40.2 c-7.52 0 -12.6 -5.12 -12.6 -12.44 c0 -7.56 5.32 -12.44 12.6 -12.44 c7.56 0 12.6 5.08 12.6 12.44 c0 7.6 -5.28 12.44 -12.6 12.44 z"></path></g><g id="SvgjsG6955" featurekey="sloganFeature-0" transform="matrix(0.7756087926054634,0,0,0.7756087926054634,115.67424429416134,30.05883713682975)" fill="#333333"><path d="M0.42 7.76 l10.2 0 l0 2.78 l-3.6 0 l0 9.46 l-3 0 l0 -9.46 l-3.6 0 l0 -2.78 z M28.9255 17.52 l-4.5 0 l-0.88 2.48 l-3.26 0 l4.9 -12.24 l3 0 l4.9 12.24 l-3.28 0 z M25.4055 14.74 l2.54 0 l-1.26 -3.56 z M42.871 19.7 l0 -2.82 c0.24 0.06 0.54 0.12 0.88 0.16 c0.34 0.06 0.7 0.1 1.08 0.12 s0.76 0.04 1.16 0.06 s0.78 0.04 1.12 0.04 c0.94 0 1.6 -0.06 2 -0.16 c0.38 -0.1 0.58 -0.28 0.58 -0.56 c0 -0.24 -0.18 -0.42 -0.36 -0.56 c-0.66 -0.44 -1.44 -0.62 -2.22 -0.8 c-2.2 -0.44 -4.22 -1.32 -4.22 -3.84 c0 -2.98 2.82 -3.68 5.24 -3.68 c1.34 0 2.7 0.14 4 0.46 l0 2.82 c-0.2 -0.06 -0.46 -0.1 -0.78 -0.16 c-0.34 -0.04 -0.68 -0.08 -1.06 -0.12 c-0.78 -0.08 -1.52 -0.12 -2.3 -0.12 c-0.44 0 -1.36 0 -1.78 0.16 c-0.28 0.1 -0.46 0.22 -0.46 0.54 c0 0.16 0.04 0.3 0.12 0.42 c0.08 0.14 0.22 0.24 0.4 0.34 c0.54 0.3 1.24 0.48 1.84 0.62 c0.5 0.12 1 0.26 1.52 0.4 c1.76 0.48 2.92 1.46 2.92 3.34 c0 3.1 -3.08 3.76 -5.56 3.76 c-1.36 0 -2.78 -0.1 -4.12 -0.42 z M63.37650000000001 7.76 l3 0 l0 5.74 l3.94 -5.74 l3.72 0 l-4.28 6.12 l4.44 6.12 l-3.68 0 l-4.14 -5.76 l0 5.76 l-3 0 l0 -12.24 z M100.76750000000001 13.26 l0 6.74 l-3 0 l0 -12.24 l3 0 l3.82 6.76 l3.82 -6.76 l3 0 l0 12.24 l-3 0 l0 -6.74 l-2.32 3.98 l-3 0 z M130.453 17.52 l-4.5 0 l-0.88 2.48 l-3.26 0 l4.9 -12.24 l3 0 l4.9 12.24 l-3.28 0 z M126.933 14.74 l2.54 0 l-1.26 -3.56 z M152.7985 7.76 l3 0 l0 12.24 l-3 0 l-4.8 -7.16 l0 7.16 l-3 0 l0 -12.24 l3 0 l4.8 7.16 l0 -7.16 z M174.844 17.52 l-4.5 0 l-0.88 2.48 l-3.26 0 l4.9 -12.24 l3 0 l4.9 12.24 l-3.28 0 z M171.32399999999998 14.74 l2.54 0 l-1.26 -3.56 z M199.66950000000003 12.5 l0 6.8 c-1.42 0.54 -3.2 0.84 -4.72 0.84 c-3.9 0 -6.52 -2.34 -6.52 -6.2 c0 -4.22 3.14 -6.28 6.98 -6.28 c0.26 0 0.54 0 0.86 0.02 c0.3 0.02 0.62 0.06 0.96 0.08 c0.62 0.08 1.24 0.16 1.84 0.34 l0 3.06 c-0.22 -0.1 -0.46 -0.18 -0.74 -0.26 c-0.3 -0.06 -0.6 -0.12 -0.92 -0.18 c-0.64 -0.12 -1.32 -0.16 -1.98 -0.16 c-2.54 0 -4 0.78 -4 3.38 c0 2.54 1.34 3.3 3.62 3.3 c0.24 0 0.5 -0.02 0.78 -0.04 c0.26 -0.02 0.54 -0.04 0.84 -0.06 l0 -1.86 l-2.6 0 l0 -2.78 l5.6 0 z M210.735 7.76 l9.1 0 l0 2.78 l-6.1 0 l0 1.96 l4.9 0 l0 2.78 l-4.9 0 l0 1.94 l6.1 0 l0 2.78 l-9.1 0 l0 -12.24 z M233.7005 10.58 l0 2.92 l2.8 0 c0.92 0 1.46 -0.54 1.46 -1.46 s-0.54 -1.46 -1.46 -1.46 l-2.8 0 z M238.24050000000003 15.48 c0.56 0.76 1.12 1.52 1.7 2.26 c0.56 0.74 1.12 1.5 1.68 2.26 l-3.66 0 c-0.72 -0.96 -1.42 -1.92 -2.12 -2.88 c-0.7 -0.94 -1.42 -1.9 -2.14 -2.86 l0 5.74 l-3 0 l0 -12.24 l5.8 0 c2.28 0 4.22 1.74 4.22 4.04 c0 1.62 -1 3.04 -2.48 3.68 z M273.1915 17.52 l-4.5 0 l-0.88 2.48 l-3.26 0 l4.9 -12.24 l3 0 l4.9 12.24 l-3.28 0 z M269.6715 14.74 l2.54 0 l-1.26 -3.56 z M287.73699999999997 20 l0 -12.24 l5.8 0 c2.28 0 4.22 1.72 4.22 4.02 c0 2.32 -2 4.02 -4.22 4.02 l-2.8 0 l0 4.2 l-3 0 z M293.537 10.54 l-2.8 0 l0 2.48 l2.8 0 c0.7 0 1.22 -0.54 1.22 -1.24 s-0.52 -1.24 -1.22 -1.24 z M308.42249999999996 20 l0 -12.24 l5.8 0 c2.28 0 4.22 1.72 4.22 4.02 c0 2.32 -2 4.02 -4.22 4.02 l-2.8 0 l0 4.2 l-3 0 z M314.22249999999997 10.54 l-2.8 0 l0 2.48 l2.8 0 c0.7 0 1.22 -0.54 1.22 -1.24 s-0.52 -1.24 -1.22 -1.24 z"></path></g></svg>